<?xml version="1.0" encoding="UTF-8" standalone="no"?>
<!-- Created with Inkscape (http://www.inkscape.org/) -->

<svg
   width="210mm"
   height="297mm"
   viewBox="0 0 210 297"
   version="1.1"
   id="svg1"
   inkscape:version="1.4 (86a8ad7, 2024-10-11)"
   sodipodi:docname="ImagotipoEconofarmaEditar.svg"
   xmlns:inkscape="http://www.inkscape.org/namespaces/inkscape"
   xmlns:sodipodi="http://sodipodi.sourceforge.net/DTD/sodipodi-0.dtd"
   xmlns:xlink="http://www.w3.org/1999/xlink"
   xmlns="http://www.w3.org/2000/svg"
   xmlns:svg="http://www.w3.org/2000/svg">
  <sodipodi:namedview
     id="namedview1"
     pagecolor="#ffffff"
     bordercolor="#000000"
     borderopacity="0.25"
     inkscape:showpageshadow="2"
     inkscape:pageopacity="0.0"
     inkscape:pagecheckerboard="0"
     inkscape:deskcolor="#d1d1d1"
     inkscape:document-units="mm"
     inkscape:zoom="0.68862935"
     inkscape:cx="599.74208"
     inkscape:cy="381.192"
     inkscape:window-width="1920"
     inkscape:window-height="991"
     inkscape:window-x="-9"
     inkscape:window-y="-9"
     inkscape:window-maximized="1"
     inkscape:current-layer="svg1" />
  <defs
     id="defs1">
    <rect
       x="454.52608"
       y="464.6912"
       width="651.01591"
       height="136.00474"
       id="rect2" />
    <rect
       x="458.88256"
       y="348.5184"
       width="257.03232"
       height="74.06016"
       id="rect1" />
    <pattern
       inkscape:collect="always"
       xlink:href="#halftones"
       preserveAspectRatio="xMidYMid"
       id="pattern83"
       patternTransform="matrix(0.13436162,0,0,0.13436162,19.278724,-28.438614)"
       x="0"
       y="0" />
    <pattern
       patternUnits="userSpaceOnUse"
       width="10"
       height="10"
       preserveAspectRatio="xMidYMid"
       style="fill:#2876a6"
       id="halftones"
       x="0"
       y="0"
       inkscape:label="Semitonos"
       inkscape:collect="always"
       inkscape:isstock="true">
      <g
         id="fullPattern"
         style="display:inline"
         transform="scale(0.1)">
        <circle
           style="fill-opacity:1;stroke:none;paint-order:markers fill stroke;stop-color:#000000"
           id="circle10"
           cx="50"
           cy="50"
           r="25" />
        <path
           id="circle37"
           style="paint-order:markers fill stroke"
           d="M 25,0 A 25,25 0 0 1 0,25 25,25 0 0 1 -25,0 25,25 0 0 1 0,-25 25,25 0 0 1 25,0 Z" />
        <path
           id="circle39"
           style="paint-order:markers fill stroke"
           d="M 125,0 A 25,25 0 0 1 100,25 25,25 0 0 1 75,0 25,25 0 0 1 100,-25 25,25 0 0 1 125,0 Z" />
        <path
           id="circle43"
           style="paint-order:markers fill stroke"
           d="M 25,100 A 25,25 0 0 1 0,125 25,25 0 0 1 -25,100 25,25 0 0 1 0,75 25,25 0 0 1 25,100 Z" />
        <path
           id="circle45"
           style="paint-order:markers fill stroke"
           d="m 125,100 a 25,25 0 0 1 -25,25 25,25 0 0 1 -25,-25 25,25 0 0 1 25,-25 25,25 0 0 1 25,25 z" />
      </g>
    </pattern>
    <rect
       x="454.52609"
       y="464.69119"
       width="651.01593"
       height="136.00475"
       id="rect2-0" />
  </defs>
  <g
     inkscape:label="Capa 1"
     inkscape:groupmode="layer"
     id="layer1">
    <path
       style="fill:#b8b42e;fill-opacity:1;stroke-width:0.153054"
       d="m 99.809751,93.081464 c -0.2664,-0.0706 -0.79019,-0.20789 -1.04802,-0.4657 -1.190215,-1.19022 -1.749733,-4.860378 -1.343708,-8.814018 0.253317,-2.46649 0.906174,-6.55904 1.312308,-7.71021 0.10319,-0.29242 0.26277,-0.54969 0.24074,-0.5717 -0.0221,-0.0219 -0.22885,0.0141 -0.45965,0.0803 -0.230802,0.0662 -0.68423,0.1203 -1.007614,0.1203 -0.768465,0 -0.848193,-0.48924 -1.186788,-1.5855 -0.286004,-0.92598 -0.882096,-2.32909 -0.468706,-2.51744 0.442327,-0.20153 2.198951,-0.76882 3.176298,-0.93574 0.48908,-0.0836 1.135979,1.26569 1.193519,1.19245 0.0575,-0.0733 -0.368799,-1.11785 -0.21534,-1.58926 1.22359,-3.75886 3.62294,-9.61896 5.06193,-12.53449 2.0472,-4.14796 4.06726,-6.79692 5.81206,-7.65362 1.54723,-0.75968 3.39163,0.69193 4.90641,2.22814 0.99045,1.00449 1.59743,2.18225 1.68495,3.26942 0.12414,1.54236 -0.45351,2.71509 -2.33992,5.89905 -0.93216,1.57339 -1.28734,1.62519 -2.36754,1.62519 -0.9565,0 -1.38544,-0.48194 -1.38544,-0.88503 0,-0.1648 -0.60587,-0.57371 -0.17506,-1.49241 1.36578,-2.9124 2.63524,-4.87805 2.63524,-6.09135 0,-0.80186 0.2224,-2.40894 -0.38477,-2.40894 -0.77894,0 -2.65119,2.52064 -3.72457,4.18743 -1.00016,1.55307 -2.60559,6.95563 -4.1346,10.78231 -0.71355,1.7858 -1.60402,4.34634 -1.53543,4.41494 0.0188,0.0188 0.28888,-0.0136 0.60033,-0.0718 2.30931,-0.43142 9.85135,-1.35261 10.93794,-0.95638 0.0673,0.0246 -0.37131,0.64517 0.0664,0.33791 1.62868,-1.14317 3.47795,-1.66945 4.86911,-1.38568 0.42026,0.0857 0.98395,0.27944 1.25264,0.43045 l 0.48861,0.27459 0.28418,-0.26697 c 0.40151,-0.37721 1.00829,-0.34199 1.87352,0.10876 0.86558,0.45092 1.39473,0.98508 1.39473,1.4079 0,0.17075 -0.2997,0.93394 -0.66604,1.69594 -1.20497,2.50663 -2.08559,4.99009 -2.51566,7.0946 -0.4003,1.95894 -0.28464,3.00212 0.39648,3.57521 0.63147,0.53138 1.95945,0.35593 3.62216,-0.47854 0.91023,-0.4568 2.72001,-1.6143 3.14795,-2.01335 0.15549,-0.14498 -0.16997,-0.84226 0.058,-1.79196 1.39593,-5.81407 2.13522,-8.99132 2.87546,-10.3581 0.61034,-1.12694 1.20213,-2.51198 2.09339,-2.11969 0.37686,0.16587 0.35442,0.17595 1.22021,0.70217 0.77461,0.47082 0.48149,2.3926 0.47001,3.21172 -0.011,0.83192 -0.5144,2.57379 -1.43545,4.97354 -0.17447,0.45457 -0.27838,0.82583 -0.23089,0.82504 0.0475,-6.2e-4 0.26866,-0.33332 0.49146,-0.73892 0.94711,-1.72416 3.69501,-4.95204 4.88887,-5.74282 0.31023,-0.20549 0.72264,-0.37361 0.91647,-0.37361 0.76976,0 1.51102,0.66476 1.87189,1.67875 0.4993,1.40297 2.12738,1.56821 2.84881,2.27851 0.79965,0.78734 -0.24746,1.68827 -0.91091,2.30297 -0.75819,0.70253 -1.46109,0.78025 -2.47718,0.27392 -0.70115,-0.34939 -1.15244,-0.87696 -1.74029,-2.03436 -0.19666,-0.38725 -0.64487,-2.21001 -0.7199,-2.21001 -0.2326,0 -2.39733,2.86733 -3.26415,4.02586 -0.86481,1.15585 -1.89529,4.69382 -2.95884,7.17248 -0.33583,0.78272 -0.80836,1.73221 -1.04999,2.10996 l -0.43937,0.68684 h -0.65271 c -0.83163,0 -1.81406,-0.29012 -2.11584,-0.6248 -0.18886,-0.20944 -0.23088,-0.42833 -0.21643,-1.12751 l 0.0178,-0.8676 -0.69134,0.74768 c -0.79269,0.85722 -1.62249,1.50414 -2.51727,1.9624 -0.53057,0.27176 -0.77459,0.3178 -1.64553,0.31059 -0.91955,-0.008 -1.11303,-0.0532 -1.92047,-0.45225 -0.9788,-0.48373 -1.72025,-1.20972 -2.19841,-2.1525 -0.35615,-0.70224 -0.79703,-2.17864 -0.79703,-2.66909 0,-0.50845 -0.18697,-0.59094 -0.52015,-0.22949 -1.2977,1.40771 -3.41177,3.03826 -4.75656,3.66865 -2.00594,0.94034 -4.23379,0.55081 -5.1046,-0.89251 -0.30619,-0.50745 -0.33224,-0.65262 -0.32981,-1.83664 0.002,-1.08585 0.0566,-1.44383 0.34936,-2.30356 0.71552,-2.10061 2.14572,-4.52747 3.68439,-6.25189 0.3809,-0.42688 -0.0724,-1.0086 -0.0962,-1.03242 -0.0238,-0.0238 0.29061,0.30034 -0.21232,0.46006 -0.50294,0.1597 -2.20866,0.51899 -3.79047,0.79843 -4.10151,0.72451 -6.01782,1.16611 -6.21184,1.43145 -0.22308,0.30507 -0.55519,1.48639 -1.06152,3.77564 -1.1757,5.31573 -0.49076,7.99355 0.10458,11.32674 0.20062,1.123188 0.0803,1.786898 -0.13304,2.115748 -0.299,0.37804 -0.98222,0.85426 -1.664459,0.67372 z M 112.90578,82.468236 c 1.20522,-0.6923 3.40371,-2.79598 5.32436,-5.09476 1.23881,-1.4827 2.03609,-2.73272 2.39896,-3.76118 0.15951,-0.45209 0.15684,-0.52428 -0.0269,-0.72739 -0.28983,-0.32023 -0.7524,-0.28022 -1.58526,0.13714 -2.05296,1.0288 -4.63586,4.03057 -6.3782,7.41252 -0.66824,1.29714 -0.86234,1.94959 -0.65444,2.20007 0.20315,0.24478 0.2069,0.2441 0.92154,-0.1664 z m -95.065666,5.73533 c -3.058429,-0.80089 -5.155779,-3.25804 -5.153059,-6.0371 8.42e-4,-1.24935 0.0853,-2.05066 1.599723,-6.67597 0.23103,-0.70559 0.135239,-1.34927 -0.131298,-1.75528 -0.24612,-0.37492 -0.43747,-0.59677 -0.654518,-0.89639 -0.308593,-0.42598 -0.69428,-0.80674 -0.920973,-1.28138 -0.08564,-0.17934 -0.15784,-0.57492 -0.15784,-0.57492 l 0.483697,-1.57089 c 0.263938,-0.8572 3.097624,0.95333 3.126101,0.90386 0.01381,-0.024 0.371863,-1.06304 0.795608,-2.3089 1.278396,-3.75865 2.008115,-5.89137 2.443493,-6.97926 1.25157,-3.31199 1.276972,-3.48499 0.602535,-4.10286 -0.554544,-0.50804 -0.574402,-0.80842 -0.125398,-1.89683 0.457967,-1.11015 1.128811,-2.07395 1.631021,-2.34329 0.601613,-0.32264 1.422486,-0.29307 2.153061,0.0776 0.614529,0.31177 1.134707,0.38983 1.343131,0.20153 0.119793,-0.10826 0.940546,-0.27948 2.448679,-0.51092 0.930039,-0.14273 4.079453,0.0232 5.014222,0.26424 0.26937,0.0695 0.682618,0.17453 0.918315,0.2335 2.515974,0.62943 4.605169,-0.16549 5.297569,1.25968 0.243895,0.502 0.210217,1.34309 0.02064,1.53265 -1.599837,0.55856 -3.239453,0.23003 -5.426756,0.2674 -3.300288,0.003 -8.12468,0.57475 -8.345551,0.98746 -0.06191,0.11564 -0.311665,0.7529 -0.555082,1.41618 -0.447642,1.21976 -0.528953,1.43851 -1.882227,5.06295 -0.414883,1.11118 -0.861456,2.30959 -0.992392,2.66313 -0.130928,0.35357 -0.345874,0.93211 -0.477645,1.28566 -0.442571,1.18742 -0.706375,2.11097 -0.647715,2.26755 0.04168,0.11134 0.223953,0.13344 0.642855,0.0778 0.797441,-0.10582 10.702491,-1.7127 10.80694,-1.60945 0.245855,0.24299 -1.466971,2.36523 -2.545169,2.95759 -0.477829,0.26253 -2.001094,1.14414 -2.568616,1.32301 -1.550083,0.48854 -2.249025,0.65056 -5.387483,1.24879 -1.212192,0.23107 -2.293662,0.45508 -2.403284,0.49783 -0.109606,0.0427 -0.284137,0.36371 -0.387813,0.71322 -0.103679,0.34949 -0.44081,1.4852 -0.74918,2.52376 -0.308377,1.03854 -0.645347,2.25073 -0.748808,2.69373 -0.103468,0.44301 -0.241414,1.0047 -0.306554,1.24823 -0.169827,0.63493 -0.14848,0.94775 0.113571,1.6647 0.281495,0.77014 0.636055,1.28546 1.15404,1.67728 0.461749,0.3493 1.797522,0.80687 2.355475,0.80687 0.641146,0 2.741536,-0.46139 3.666288,-0.80538 0.471409,-0.17534 1.002869,-0.36341 1.180998,-0.41792 0.275941,-0.0844 0.988941,-0.43089 2.711251,-1.31734 0.500459,-0.25758 0.697357,-0.1361 0.58523,0.36108 -0.262976,1.16597 -1.138194,2.23231 -2.62099,3.19331 -2.612844,1.69337 -5.498551,2.30433 -7.906096,1.67387 z m 129.227266,-1.15205 c -0.93999,-0.17538 -1.71504,-0.61381 -2.05697,-1.16359 -0.22292,-0.35839 -0.68332,-0.88367 -0.78404,-1.41274 -0.11698,-0.6143 0.11331,-1.24854 0.24395,-1.86007 0.21022,-0.9838 0.57111,-1.9293 0.86488,-2.89148 0.76524,-2.50642 1.78596,-6.06295 2.3384,-7.50611 0.16754,-0.43773 0.58003,-1.76911 0.78651,-2.30785 0.72135,-1.88243 1.23707,-3.50576 1.6437,-3.50576 0.31316,0 1.40968,0.15435 1.72245,0.48776 0.57123,0.60895 0.83471,4.49893 -0.96357,9.07371 -0.87342,2.22186 -0.9552,2.48274 -0.73945,2.35858 0.0892,-0.0515 0.53519,-0.56172 0.99101,-1.13413 2.10694,-2.64597 5.24317,-5.89314 6.4734,-6.70244 0.74034,-0.48703 0.94902,-0.56434 1.653,-0.61248 0.77843,-0.0532 0.82242,-0.0406 1.30044,0.37276 0.43966,0.38023 0.83514,1.00403 1.10207,1.73832 0.21579,0.5936 0.2713,1.44131 0.1764,2.69375 -0.24919,3.28804 -0.24821,3.24473 -0.0738,3.24473 0.0912,0 0.30343,-0.20662 0.47164,-0.45916 1.21594,-1.82587 4.55312,-5.49494 5.38486,-5.92039 0.53009,-0.27113 0.8133,-0.28913 1.28476,-0.0816 0.83235,0.36632 1.46228,0.86908 1.84051,1.46898 0.47506,0.75342 0.49827,1.15861 0.20547,3.58412 -0.25735,2.13176 -0.29451,5.85669 -0.0638,6.40343 0.45144,1.07025 2.1301,0.98699 4.75682,-0.23589 0.77699,-0.36174 0.88665,-0.45336 0.88771,-0.74168 8.4e-4,-0.50361 0.4345,-2.20469 0.77949,-3.06467 1.36458,-3.40158 4.54174,-7.21318 7.15616,-8.58513 1.24967,-0.6558 2.81063,-0.96596 3.81088,-0.75723 0.39921,0.0833 0.954,0.27041 1.23293,0.41578 l 0.50706,0.2643 0.31433,-0.24724 c 0.44004,-0.34615 0.94944,-0.30876 1.84227,0.13522 0.88464,0.4399 1.37765,0.95737 1.37765,1.446 0,0.18719 -0.32495,1.02324 -0.72211,1.85786 -0.81234,1.70711 -1.2016,2.66292 -1.66517,4.08879 -0.69739,2.14489 -0.84094,2.88308 -0.84937,4.36727 -0.01,1.65626 0.15224,2.03282 0.96047,2.23757 1.35086,0.34225 3.42462,-0.61018 7.10163,-3.26151 0.26327,-0.18985 0.50441,-0.3195 0.53579,-0.28807 0.0314,0.0314 -0.0952,0.3486 -0.28149,0.70489 -1.08887,2.08319 -2.92521,4.11845 -4.4123,4.89029 -1.03259,0.53593 -1.47785,0.62207 -2.47246,0.47841 -2.42299,-0.35001 -3.92074,-2.1409 -4.38344,-5.24129 -0.0427,-0.2862 -0.116,-0.52038 -0.16291,-0.52038 -0.0468,0 -0.38643,0.30713 -0.75449,0.6825 -1.99032,2.02969 -4.32155,3.5054 -5.88874,3.72768 -1.46599,0.2079 -2.90716,-0.24913 -3.43113,-1.08813 -0.13311,-0.21312 -0.19373,-0.1876 -0.88874,0.37428 -2.06103,1.6663 -3.71041,2.03695 -5.85283,1.31523 -2.04716,-0.68963 -2.93599,-1.8582 -3.26926,-4.29816 -0.14043,-1.02809 -0.0827,-2.26862 0.28486,-4.07342 0.073,-0.35852 1.50594,-4.70243 1.02978,-3.30718 -0.0663,-0.19888 -2.23648,3.0369 -4.12234,5.74433 -3.36623,4.83271 -3.91038,5.78101 -5.36268,4.81045 -1.0797,-0.72159 -1.87239,-1.93984 -1.48939,-3.72261 0.31521,-1.46723 0.46731,-2.33878 0.8925,-4.15843 0.43306,-1.85334 1.9044,-5.27606 1.69483,-5.40553 -0.2814,-0.17392 -4.82903,4.66827 -7.05371,7.47998 -0.60538,0.76517 -1.32616,1.67431 -1.60171,2.0203 -0.73359,0.92123 -2.15471,4.26098 -2.64978,5.19819 -0.23569,0.44618 -0.53874,0.85957 -0.67343,0.91862 -0.14712,0.0644 -0.53824,0.0526 -0.97955,-0.0297 z m 33.95933,-4.81636 c 0.77116,-0.50904 1.92483,-1.55683 3.2021,-2.9082 0.50506,-0.53436 0.94769,-0.99966 0.9836,-1.03397 0.29417,-0.28126 1.56493,-1.87556 1.96809,-2.46924 0.58781,-0.8656 1.33383,-2.33491 1.33383,-2.62704 0,-0.26121 -0.35058,-0.52837 -0.69991,-0.53338 -0.65597,-0.01 -2.18412,0.95364 -3.323,2.09423 -1.63217,1.63456 -3.07546,3.63979 -4.1116,5.71239 -0.63912,1.2784 -0.81852,1.86668 -0.65719,2.15496 0.14895,0.26618 0.44407,0.17799 1.30408,-0.38975 z m -145.015127,3.96533 c -2.167101,-0.49509 -3.611796,-1.92732 -4.181496,-4.14544 -0.298743,-1.16316 -0.171555,-3.01565 0.306018,-4.45691 1.010528,-3.04969 2.598625,-6.24564 4.889536,-7.69699 1.392981,-0.88251 3.093807,-0.81986 4.303133,-0.17531 0.858659,0.45766 2.505248,-0.0762 2.964391,0.91015 0.372718,0.80073 0.382552,1.46535 0.06855,1.85275 -0.325617,0.4017 -1.640643,0.18311 -2.544598,-0.2592 -0.785556,-0.56658 -1.297144,0.0515 -1.739486,0.45598 -0.579366,0.52983 -1.081371,0.94431 -1.578241,1.46111 -1.126447,1.17165 -2.726553,2.89047 -3.169253,3.70547 -1.247658,2.29684 -1.015925,5.16881 0.25295,5.85827 0.62397,0.33906 2.218124,0.21782 3.714764,-0.28248 1.299776,-0.43448 3.623437,-1.61606 5.13246,-2.60981 0.986688,-0.6498 1.054424,-0.72214 1.133908,-1.21075 0.421716,-2.5925 3.517159,-8.66302 5.398885,-10.58783 1.020722,-1.04408 1.312049,-1.11114 2.318787,-0.53369 1.023859,0.58728 1.765034,1.60056 1.768948,2.4184 8.42e-4,0.18685 0.953138,1.0204 1.821809,1.59475 1.183785,0.78271 1.914387,1.60302 2.093792,2.35087 0.280854,1.17072 -0.08139,2.76159 -0.914535,4.01638 -1.133648,1.70742 -4.098946,4.83372 -5.413922,5.70793 -1.165014,0.77449 -1.748683,0.97608 -2.851509,0.98486 -0.75825,0.007 -1.057046,-0.0546 -1.714198,-0.34734 -1.277671,-0.56931 -1.793648,-0.9948 -2.205245,-1.81848 -0.201329,-0.4029 -0.366068,-0.83576 -0.366068,-0.96188 0,-0.16277 -0.257682,0.0311 -0.887705,0.66764 -1.178685,1.191 -3.121266,2.47542 -4.347807,2.87472 -1.167456,0.38007 -3.125863,0.4845 -4.253811,0.22681 z m 13.861593,-3.86879 c 1.219017,-0.69912 4.213099,-3.78108 5.383276,-5.54128 0.744607,-1.12005 0.9579,-1.72927 0.766894,-2.19042 -0.17832,-0.43049 -0.657397,-0.58548 -2.10168,-0.67992 l -1.068573,-0.0699 -0.662651,0.50028 c -1.109084,0.83738 -2.053631,2.45483 -3.016638,5.16572 -0.631327,1.77723 -0.776544,2.44414 -0.621168,2.85285 0.16617,0.43703 0.5103,0.4273 1.32054,-0.0375 z m 26.177262,3.85872 c -0.06732,-0.0225 -0.517139,-0.15601 -0.999542,-0.29675 -1.026001,-0.29933 -1.965345,-0.97811 -2.482852,-1.79414 -0.40681,-0.64147 -0.984015,-2.51189 -1.022248,-3.8552 -0.02844,-0.99965 1.480007,-6.50054 1.795645,-7.82131 0.09643,-0.4035 -1.654755,1.69578 -1.678949,1.67157 -0.116087,-0.11612 -1.144924,1.38755 -3.406478,3.74813 -4.159037,4.34112 -3.631947,5.55842 -4.752882,6.99444 -0.561532,0.71935 -1.236378,1.16856 -1.755538,1.16856 -0.410339,0 -1.051436,-0.46293 -1.474292,-1.06458 -0.650871,-0.92608 -1.750944,-1.58907 -0.215147,-5.82154 1.422275,-3.91963 2.551653,-9.68908 2.830922,-10.84197 0.227611,-0.93967 2.068774,-1.63523 2.385422,-1.71471 0.365814,-0.0918 1.009783,2.30695 1.549742,2.80908 0.638907,0.59413 0.556374,0.95435 -1.566773,6.83828 -0.230855,0.63976 -0.50894,1.3704 -0.61797,1.62361 -0.109028,0.25323 -0.16155,0.49711 -0.1167,0.54196 0.04488,0.045 1.36208,-1.18554 2.927181,-2.7342 1.565102,-1.54863 3.121136,-3.00435 3.457848,-3.23492 1.922179,-1.31618 2.842979,-1.67661 3.661985,-1.43341 0.678045,0.20134 1.620696,1.14557 1.731079,1.73395 0.08065,0.42996 -0.109139,1.78628 -0.335068,2.39445 -0.06124,0.16474 -0.2836,1.10143 -0.494219,2.08154 -0.316762,1.47403 -0.384476,2.06765 -0.391823,3.43496 -0.0092,1.70446 0.07514,2.12535 0.569644,2.84374 0.682674,0.99179 2.600376,0.56098 5.053847,-1.13536 0.269372,-0.18623 0.723937,-0.4822 1.010157,-0.6577 0.488659,-0.29963 0.520369,-0.35289 0.520369,-0.8737 0,-0.76809 0.311663,-2.20192 0.752649,-3.46265 0.690403,-1.97379 3.274037,-6.63674 4.43644,-8.00692 1.182403,-1.39375 1.81419,-1.49805 3.121438,-0.51539 0.756658,0.5688 1.240035,1.31233 1.240035,1.90742 0,0.38269 0.267494,0.63507 1.985779,1.87356 1.156239,0.83337 1.421987,1.0885 1.711781,1.64335 0.276356,0.52908 0.343054,0.81642 0.343054,1.47771 0,1.75878 -0.655488,2.97454 -3.056524,5.66908 -1.933229,2.16954 -3.016602,3.11884 -4.261395,3.73407 -0.795528,0.39317 -1.006075,0.44414 -1.840943,0.44569 -0.790454,8.5e-4 -1.093188,-0.0619 -1.874693,-0.39342 -1.110171,-0.47071 -1.851471,-1.07078 -2.145158,-1.73642 -0.118091,-0.26766 -0.246898,-0.48665 -0.286247,-0.48665 -0.03937,0 -0.455775,0.39225 -0.925374,0.87165 -0.469599,0.47942 -1.180092,1.0861 -1.578867,1.3482 -1.120663,0.73654 -3.085241,1.26621 -3.805335,1.02594 z m 10.852857,-4.01059 c 1.473128,-0.98294 4.423863,-4.15988 5.473377,-5.89297 0.464633,-0.76727 0.836647,-2.13722 0.591156,-2.46462 -0.222808,-0.29713 -1.33939,-0.46226 -2.316699,-0.46401 -0.695252,-8e-4 -1.101215,0.57435 -1.515294,0.87429 -1.240288,0.89846 -2.366476,2.8362 -3.338856,5.74492 -0.668047,1.99837 -0.671551,2.72232 -0.01318,2.72232 0.196318,0 0.669952,-0.21997 1.119498,-0.51993 z"
       id="path1"
       sodipodi:nodetypes="csssssssssssssssssscssssscccsscssscsssssssscscsssssssssssscssscsscssscssccssssssscccssscssssccssaacscccssccsscssscccssccccssssssscssscsscccccsaaasssssscsssssscscssssccssscssssccsssssssscsssssccsssscssssccsscssssssscsssssccsacsssssscsscsccsscscccssscsssccsssssssssssssssssscsscsccsssssssssssscsssssscssccsscc" />
    <path
       style="fill:#af6c3f;fill-opacity:1;stroke-width:0.153054"
       d="m 100.59029,91.427274 c -0.2664,-0.0706 -0.677049,-0.32768 -0.934869,-0.5855 -1.19022,-1.190218 -1.74974,-4.860378 -1.343706,-8.814018 0.253296,-2.46649 0.999326,-6.55902 1.405496,-7.71022 0.10317,-0.2924 0.16957,-0.54968 0.14755,-0.57169 -0.0221,-0.0219 -0.22886,0.0141 -0.45965,0.0803 -0.23081,0.0662 -0.68423,0.12029 -1.007613,0.12029 -0.768473,0 -1.087797,-0.3162 -1.426392,-1.41246 -0.286004,-0.92598 -0.256475,-1.18436 0.156904,-1.3727 0.442335,-0.20153 2.012601,-0.6091 2.98995,-0.77602 0.48907,-0.0836 0.9363,-0.2118 0.99385,-0.28505 0.0576,-0.0734 0.23019,-0.51886 0.38365,-0.99025 1.22359,-3.75888 3.39667,-9.20634 4.83564,-12.12185 2.04722,-4.14797 4.01402,-6.7437 5.75881,-7.60039 1.54726,-0.75968 3.07219,-0.37295 4.58696,1.16326 0.99046,1.00449 1.59744,2.18224 1.68495,3.26944 0.12414,1.54234 -0.4535,3.09158 -2.33991,6.27551 -0.93219,1.5734 -1.28734,1.8511 -2.36756,1.8511 -0.95649,0 -1.38543,-0.18075 -1.38543,-0.58384 0,-0.1648 0.35252,-1.05134 0.78333,-1.97004 1.36578,-2.91239 2.03286,-4.9275 2.03286,-6.14081 0,-0.80187 -0.1336,-0.9783 -0.74076,-0.9783 -0.77895,0 -1.82293,0.9394 -2.89631,2.60618 -1.00016,1.55308 -3.43387,6.72975 -4.96287,10.55644 -0.71353,1.78579 -1.60404,4.34633 -1.53543,4.41494 0.0188,0.0188 0.28887,-0.0136 0.60031,-0.0717 2.30932,-0.43144 8.99947,-0.50075 10.08606,-0.10447 0.0674,0.0245 0.48058,-0.20673 0.9183,-0.51397 1.62866,-1.14318 3.47795,-1.66946 4.8691,-1.3857 0.42026,0.0858 0.98395,0.27944 1.25266,0.43046 l 0.48859,0.2746 0.2842,-0.26698 c 0.40151,-0.37722 1.00826,-0.342 1.87352,0.10875 0.86555,0.45094 1.39471,0.98509 1.39471,1.40791 0,0.17075 -0.2997,0.93394 -0.66603,1.69592 -1.20498,2.50664 -2.0856,4.9901 -2.51565,7.0946 -0.40032,1.95896 -0.28465,3.00214 0.39646,3.57524 0.63146,0.53136 1.95945,0.35591 3.62217,-0.47856 0.91021,-0.4568 2.71999,-1.61429 3.14796,-2.01334 0.15548,-0.14499 0.36244,-0.73576 0.59047,-1.68547 1.39593,-5.81407 2.13521,-8.29917 2.87544,-9.66596 0.61035,-1.12693 0.82944,-1.2341 1.72067,-0.84183 0.37686,0.16586 0.87803,0.45787 1.11373,0.64894 0.41736,0.3383 0.42824,0.36934 0.41676,1.18846 -0.011,0.8319 -0.51439,2.57379 -1.43545,4.97354 -0.17446,0.45457 -0.27838,0.82583 -0.23087,0.82503 0.0475,-6.3e-4 0.26864,-0.33331 0.49145,-0.73891 0.94711,-1.72416 3.695,-4.95205 4.88887,-5.74283 0.31024,-0.20549 0.72265,-0.37361 0.91649,-0.37361 0.76974,0 1.511,0.66477 1.87188,1.67876 0.4993,1.40296 1.07321,2.39649 1.79463,3.10679 0.79964,0.78734 0.80672,0.85998 0.14328,1.4747 -0.75822,0.70253 -1.46111,0.78024 -2.47718,0.27391 -0.70117,-0.34941 -1.15248,-0.87697 -1.74032,-2.03438 -0.19666,-0.38722 -0.41895,-0.70403 -0.49398,-0.70403 -0.2326,0 -2.09615,1.96374 -2.96298,3.12228 -0.8648,1.15584 -2.42237,4.09144 -3.48591,6.5701 -0.33584,0.78271 -0.80836,1.73221 -1.05,2.10996 l -0.43937,0.68682 h -0.65272 c -0.83162,0 -1.81403,-0.29009 -2.11582,-0.62478 -0.18886,-0.20945 -0.23087,-0.42834 -0.21644,-1.1275 l 0.0179,-0.8676 -0.69134,0.74766 c -0.79268,0.85723 -1.62248,1.50414 -2.51725,1.9624 -0.53059,0.27176 -0.77461,0.31781 -1.64553,0.3106 -0.91956,-0.008 -1.11304,-0.0532 -1.92048,-0.45224 -0.97878,-0.48375 -1.72025,-1.20974 -2.19841,-2.1525 -0.35616,-0.70224 -0.79703,-2.17866 -0.79703,-2.6691 0,-0.50844 -0.18698,-0.59093 -0.52015,-0.2295 -1.2977,1.40772 -3.41176,3.03827 -4.75655,3.66867 -2.00595,0.94033 -4.23381,0.5508 -5.10461,-0.89252 -0.30617,-0.50744 -0.33223,-0.65261 -0.32981,-1.83664 0.002,-1.08586 0.0566,-1.44383 0.34934,-2.30357 0.71552,-2.1006 2.14574,-4.52747 3.68442,-6.25187 0.38089,-0.42691 0.67305,-0.79565 0.64923,-0.81947 -0.0238,-0.0238 -0.4548,0.0874 -0.95774,0.24709 -0.50294,0.15971 -2.20865,0.51899 -3.79046,0.79844 -4.10152,0.7245 -6.01783,1.1661 -6.21185,1.43144 -0.22306,0.30507 -0.5552,1.48639 -1.06153,3.77565 -1.17568,5.31574 -1.44912,9.39119 -0.85378,12.72438 0.20064,1.123188 0.20009,1.181258 -0.0133,1.416928 -0.24575,0.27155 -0.28339,0.27523 -0.96562,0.0947 z m 13.20917,-10.733018 c 1.20522,-0.6923 3.40373,-2.79599 5.32437,-5.09477 1.23881,-1.48271 2.03608,-2.73271 2.39894,-3.76118 0.15952,-0.45209 0.15684,-0.52429 -0.0269,-0.72737 -0.28983,-0.32025 -0.7524,-0.28024 -1.58525,0.13712 -2.05297,1.02881 -4.63587,4.03057 -6.37819,7.41252 -0.66826,1.29714 -0.86235,1.94958 -0.65446,2.20008 0.20315,0.24478 0.2069,0.2441 0.92154,-0.1664 z m -95.065659,5.73533 c -3.058432,-0.8009 -5.155781,-3.25805 -5.153061,-6.0371 8.42e-4,-1.24936 0.198247,-2.01301 1.712669,-6.63833 0.23103,-0.70559 0.166063,-0.8483 -0.601909,-1.32232 -0.398746,-0.24614 -0.977291,-0.69272 -1.285643,-0.99238 -0.551154,-0.53566 -0.560633,-0.55819 -0.560633,-1.33141 v -0.78656 l 0.581603,-0.0865 c 0.887138,-0.13201 3.470328,-0.64397 3.498805,-0.69343 0.01382,-0.024 0.371863,-1.06305 0.795608,-2.3089 1.278395,-3.75866 1.932818,-5.62785 2.443494,-6.97927 1.251568,-3.31199 1.276969,-3.485 0.602533,-4.10286 -0.554543,-0.50804 -0.574403,-0.80842 -0.125396,-1.89684 0.457965,-1.11013 1.12881,-2.07394 1.63102,-2.34326 0.601613,-0.32266 1.422485,-0.2931 2.153059,0.0776 0.614529,0.31176 1.134709,0.38983 1.34313,0.20154 0.119807,-0.10827 0.940549,-0.27948 2.448683,-0.51093 0.930038,-0.14272 4.079453,0.0233 5.014221,0.26425 0.269368,0.0694 0.682616,0.17451 0.918316,0.23348 2.515972,0.62944 3.626298,1.34047 4.318698,2.76564 0.243894,0.502 0.247865,0.55246 0.05828,0.74203 -0.189566,0.18958 -0.234968,0.18944 -0.66782,-8.4e-4 -0.773463,-0.34214 -1.686209,-0.44883 -3.817714,-0.4463 -3.300286,0.003 -8.124677,0.57476 -8.345547,0.98747 -0.06191,0.11564 -0.311666,0.75289 -0.555084,1.41619 -0.447641,1.21974 -0.528952,1.4385 -1.882227,5.06293 -0.414883,1.11118 -0.861457,2.3096 -0.992391,2.66315 -0.130929,0.35356 -0.345875,0.9321 -0.477646,1.28565 -0.442572,1.18741 -0.706376,2.11096 -0.647716,2.26756 0.04168,0.11133 0.223954,0.13343 0.642856,0.0778 0.79744,-0.10581 9.874216,-0.13145 9.978667,-0.0282 0.245853,0.243 -0.452344,0.94371 -1.530543,1.53608 -0.477828,0.26252 -2.187447,0.98439 -2.754969,1.16327 -1.550082,0.48856 -2.249025,0.65056 -5.387483,1.2488 -1.212192,0.23105 -2.293663,0.45508 -2.403283,0.49784 -0.109606,0.0427 -0.284137,0.3637 -0.387815,0.71321 -0.103677,0.3495 -0.440808,1.48519 -0.749178,2.52374 -0.308378,1.03856 -0.645348,2.25075 -0.748808,2.69375 -0.103468,0.443 -0.241415,1.00471 -0.306555,1.24821 -0.169826,0.63494 -0.14848,0.94777 0.113571,1.66471 0.281495,0.77015 0.636055,1.28546 1.15404,1.67729 0.461749,0.34928 1.79752,0.80685 2.355475,0.80685 0.641146,0 2.741536,-0.46137 3.666289,-0.80537 0.471408,-0.17532 1.002867,-0.36341 1.180998,-0.41792 0.27594,-0.0844 0.98894,-0.43087 2.71125,-1.31734 0.50046,-0.25759 0.697357,-0.13609 0.58523,0.36109 -0.262976,1.16596 -1.138194,2.23231 -2.62099,3.1933 -2.612843,1.69337 -5.498553,2.30434 -7.906095,1.67388 z m 129.227259,-1.15206 c -0.93998,-0.17538 -1.71502,-0.61381 -2.05697,-1.16358 -0.22292,-0.3584 -0.26731,-0.60237 -0.25696,-1.41275 0.007,-0.53875 0.0997,-1.2826 0.2063,-1.653 0.10655,-0.37037 0.27685,-0.97646 0.3783,-1.34684 0.10151,-0.37041 0.30351,-1.0316 0.44895,-1.46934 0.14544,-0.43773 0.30831,-0.96117 0.3619,-1.1632 0.13307,-0.50173 1.78674,-5.32123 2.16363,-6.30582 0.16754,-0.43772 0.47356,-1.23666 0.68,-1.77542 0.72137,-1.88243 1.02412,-2.38764 1.43073,-2.38764 0.31318,0 1.67323,0.72444 1.986,1.05785 0.57126,0.60894 0.25173,1.95884 -1.54657,6.53361 -0.87343,2.22187 -0.95518,2.48275 -0.73945,2.35857 0.0892,-0.0515 0.5352,-0.56171 0.99101,-1.13413 2.10695,-2.64596 5.24318,-5.89313 6.47342,-6.70242 0.74034,-0.48703 0.94902,-0.56436 1.65297,-0.6125 0.77845,-0.0532 0.82244,-0.0406 1.30046,0.37277 0.43966,0.38025 0.83513,1.00405 1.10207,1.73832 0.21579,0.59361 0.27129,1.44131 0.17639,2.69375 -0.2492,3.28803 -0.24821,3.24473 -0.0738,3.24473 0.0912,0 0.30343,-0.20662 0.47163,-0.45916 1.21594,-1.82587 4.55314,-5.49493 5.38486,-5.92037 0.53011,-0.27116 0.81332,-0.28915 1.28478,-0.0816 0.83235,0.36631 1.46226,0.86906 1.84048,1.46896 0.47506,0.75342 0.49826,1.15862 0.20547,3.58412 -0.25733,2.13175 -0.29449,5.85668 -0.0638,6.40343 0.45146,1.07025 2.13012,0.98699 4.75683,-0.23589 0.77701,-0.36174 0.88667,-0.45334 0.88773,-0.74168 0.003,-0.50362 0.4345,-2.20468 0.77948,-3.06466 1.36458,-3.40159 4.54173,-7.21319 7.15616,-8.58514 1.24967,-0.65578 2.81062,-0.96595 3.81089,-0.75723 0.39919,0.0833 0.95399,0.27041 1.23291,0.41578 l 0.50708,0.2643 0.3143,-0.24725 c 0.44004,-0.34613 0.94947,-0.30875 1.84229,0.13524 0.88465,0.43989 1.37763,0.95738 1.37763,1.44598 0,0.1872 -0.32493,1.02324 -0.7221,1.85788 -0.81234,1.70711 -1.2016,2.66293 -1.66516,4.08878 -0.69739,2.1449 -0.84096,2.88309 -0.84937,4.36729 -0.01,1.65624 0.15224,2.03279 0.96046,2.23756 1.35086,0.34223 3.42462,-0.61018 7.10163,-3.26152 0.26328,-0.18985 0.50442,-0.31949 0.5358,-0.28808 0.0314,0.0314 -0.0953,0.34862 -0.28148,0.70491 -1.08889,2.08319 -2.92522,4.11845 -4.41233,4.89029 -1.03256,0.53591 -1.47784,0.62208 -2.47245,0.47841 -2.42299,-0.35001 -3.92074,-2.14089 -4.38344,-5.2413 -0.0427,-0.28619 -0.116,-0.52038 -0.1629,-0.52038 -0.0468,0 -0.38643,0.30714 -0.7545,0.68252 -1.99032,2.02966 -4.32156,3.50539 -5.88874,3.72766 -1.46597,0.20792 -2.90715,-0.24912 -3.43112,-1.08813 -0.13312,-0.21312 -0.19374,-0.18759 -0.88875,0.3743 -2.06103,1.66629 -3.71041,2.03693 -5.85284,1.3152 -2.04715,-0.68962 -2.93598,-1.85819 -3.26923,-4.29813 -0.14044,-1.02809 -0.008,-2.68277 0.36015,-4.48758 0.073,-0.35853 0.11293,-0.71164 0.0885,-0.7847 -0.0663,-0.19888 -1.29525,1.38035 -3.18109,4.08777 -3.36625,4.83271 -3.98569,5.32923 -5.43798,4.35867 -1.0797,-0.72159 -1.3453,-1.67628 -0.9623,-3.45906 0.3152,-1.46723 0.51992,-2.50826 0.85484,-4.34668 0.1779,-0.97647 0.37504,-2.00644 0.43811,-2.2888 0.14142,-0.63307 0.14795,-1.22703 0.0142,-1.30959 -0.28143,-0.17392 -3.73722,3.46351 -5.9619,6.27523 -0.60541,0.76516 -1.32618,1.67429 -1.60172,2.02031 -0.73359,0.92121 -2.49355,3.58329 -2.98861,4.52049 -0.23571,0.44619 -0.53876,0.85956 -0.67345,0.91862 -0.14711,0.0644 -0.53822,0.0526 -0.97953,-0.0297 z m 33.95934,-4.81634 c 0.77116,-0.50907 1.92482,-1.55686 3.20209,-2.90822 0.50507,-0.53437 0.9477,-0.99965 0.98359,-1.03397 0.2942,-0.28126 1.56494,-1.87555 1.9681,-2.46923 0.58782,-0.86561 1.33383,-2.33491 1.33383,-2.62705 0,-0.26121 -0.35057,-0.52838 -0.69991,-0.53339 -0.65596,-0.01 -2.18411,0.95366 -3.323,2.09424 -1.63217,1.63456 -3.07546,3.6398 -4.1116,5.7124 -0.63912,1.2784 -0.81851,1.86668 -0.65718,2.15495 0.14894,0.26619 0.44406,0.17798 1.30408,-0.38973 z m -145.015131,3.96532 c -2.167102,-0.4951 -3.611796,-1.92733 -4.181498,-4.14545 -0.298741,-1.16315 -0.171555,-3.01565 0.306019,-4.4569 1.010529,-3.04969 3.237548,-6.0859 5.528459,-7.53726 1.392978,-0.88251 2.454886,-0.97961 3.664209,-0.33504 0.85866,0.45765 1.440381,1.09511 1.899522,2.0815 0.372718,0.80073 0.393254,1.21638 0.07925,1.6038 -0.325618,0.40169 -1.245332,0.37134 -2.149286,-0.071 -0.465539,-0.22775 -0.755625,-0.29849 -0.986508,-0.24054 -0.364992,0.0916 -1.279536,0.75499 -1.728839,1.25407 -0.527001,0.58536 -2.453874,3.36797 -2.896576,4.18297 -1.247656,2.29685 -1.232128,4.48423 0.03676,5.17368 0.62397,0.33905 2.218124,0.21781 3.714766,-0.28247 1.299775,-0.43449 3.623435,-1.61606 5.132457,-2.60983 0.986688,-0.64979 1.054425,-0.72211 1.13391,-1.21075 0.421714,-2.59249 3.517158,-8.66302 5.398884,-10.58782 1.020723,-1.04409 1.312051,-1.11113 2.318786,-0.53368 1.023862,0.58727 1.765036,1.60055 1.76895,2.41839 8.42e-4,0.18685 0.953138,1.02039 1.821809,1.59475 1.183785,0.78271 1.914387,1.60301 2.09379,2.35086 0.280856,1.17073 -0.08139,2.76159 -0.914534,4.01639 -1.133647,1.70741 -4.098945,4.83371 -5.41392,5.70792 -1.165015,0.77451 -1.748683,0.97609 -2.85151,0.98487 -0.75825,0.006 -1.057048,-0.0546 -1.714198,-0.34734 -1.277671,-0.56931 -1.79365,-0.99481 -2.205244,-1.81848 -0.201331,-0.40291 -0.36607,-0.83576 -0.36607,-0.96189 0,-0.16276 -0.257681,0.0311 -0.887705,0.66764 -1.178684,1.191 -3.121265,2.47541 -4.347806,2.87473 -1.167456,0.38007 -3.125863,0.48449 -4.253813,0.2268 z m 13.861592,-3.86879 c 1.219016,-0.69914 4.213097,-3.78108 5.383275,-5.54128 0.744608,-1.12007 0.957898,-1.72927 0.766895,-2.19041 -0.178321,-0.43051 -0.657396,-0.58549 -2.101681,-0.67993 l -1.068574,-0.07 -0.66265,0.5003 c -1.109084,0.83736 -2.053631,2.45482 -3.016637,5.16571 -0.631327,1.77722 -0.776543,2.44415 -0.621168,2.85284 0.166169,0.43705 0.510298,0.42731 1.32054,-0.0375 z m 26.177262,3.85871 c -0.06732,-0.0223 -0.517138,-0.156 -0.999543,-0.29673 -1.025999,-0.29933 -1.965344,-0.97813 -2.482851,-1.79415 -0.406812,-0.64148 -0.646283,-1.70946 -0.684516,-3.05277 -0.02844,-0.99965 0.29038,-3.57593 0.606015,-4.89669 0.09643,-0.40351 0.155525,-0.75345 0.131332,-0.77765 -0.116087,-0.11612 -1.144925,0.85514 -3.406478,3.21572 -4.159037,4.3411 -4.59033,4.81299 -5.711266,6.249 -0.56153,0.71936 -1.236378,1.16857 -1.755539,1.16857 -0.410338,0 -1.051434,-0.46293 -1.474289,-1.06456 -0.650872,-0.9261 -0.582509,-1.52827 0.636748,-5.60859 1.206502,-4.03762 2.445166,-8.3649 2.724435,-9.5178 0.227611,-0.93965 0.495091,-1.44051 0.811738,-1.52 0.365815,-0.0918 1.838056,0.5751 2.378016,1.07723 0.638907,0.59414 0.556373,0.95436 -1.566773,6.83828 -0.230856,0.63976 -0.508938,1.37039 -0.617968,1.62363 -0.109029,0.25322 -0.16155,0.49709 -0.116701,0.54195 0.04489,0.045 1.362079,-1.18554 2.927181,-2.73419 1.565101,-1.54865 3.121137,-3.00437 3.457848,-3.23493 1.922179,-1.31619 2.842979,-1.67661 3.661984,-1.4334 0.678045,0.20134 1.620696,1.14555 1.73108,1.73394 0.08066,0.42995 -0.109139,1.78627 -0.335068,2.39444 -0.06124,0.16476 -0.283602,1.10145 -0.494219,2.08154 -0.316761,1.47403 -0.384475,2.06766 -0.391823,3.43496 -0.0092,1.70446 0.07514,2.12537 0.569644,2.84374 0.682673,0.99179 2.600383,0.56098 5.053845,-1.13535 0.269372,-0.18625 0.723946,-0.48221 1.010157,-0.65771 0.488658,-0.29963 0.520378,-0.35289 0.520378,-0.87369 0,-0.7681 0.311654,-2.20191 0.752639,-3.46265 0.690413,-1.97379 3.274037,-6.63675 4.43645,-8.00693 1.182394,-1.39374 1.814181,-1.49806 3.121428,-0.51537 0.756658,0.56878 1.240035,1.3123 1.240035,1.9074 0,0.3827 0.267494,0.63508 1.985779,1.87356 1.156251,0.83339 1.421991,1.08851 1.711786,1.64335 0.276352,0.5291 0.343059,0.81642 0.343059,1.47771 0,1.75877 -0.655494,2.97454 -3.05653,5.66908 -1.933223,2.16954 -3.016596,3.11885 -4.261389,3.73408 -0.795538,0.39316 -1.006085,0.44413 -1.840953,0.44568 -0.790453,8.5e-4 -1.093187,-0.062 -1.874693,-0.39342 -1.110171,-0.47072 -1.851471,-1.07078 -2.145158,-1.73642 -0.118072,-0.26764 -0.246897,-0.48663 -0.286246,-0.48663 -0.03937,0 -0.455776,0.39224 -0.925374,0.87165 -0.46959,0.47939 -1.180092,1.0861 -1.578868,1.34819 -1.120653,0.73653 -3.085239,1.26619 -3.805332,1.02593 z m 10.852854,-4.01058 c 1.473138,-0.98294 4.423863,-4.15988 5.473387,-5.89299 0.464636,-0.76726 0.610742,-1.49718 0.36525,-1.82457 -0.222809,-0.29714 -1.339381,-0.5752 -2.316691,-0.57696 -0.69526,-7.9e-4 -0.875326,0.0472 -1.289414,0.3472 -1.24028,0.89846 -2.366468,2.83621 -3.338838,5.74493 -0.668057,1.99838 -0.67156,2.72231 -0.01318,2.72231 0.196318,0 0.669953,-0.21996 1.119498,-0.51992 z"
       id="path1-4" />
    <ellipse
       style="opacity:0.363139;fill:url(#pattern83);fill-opacity:1;stroke:none;stroke-width:0.772257;stroke-linecap:round;stroke-linejoin:round;stroke-dasharray:none;stroke-opacity:1;paint-order:fill markers stroke"
       id="path9"
       cx="61.308014"
       cy="56.365669"
       rx="21.556955"
       ry="2.9149344" />
    <rect
       style="fill:#2876a6;fill-opacity:1;stroke:#2876a6;stroke-width:0.779874;stroke-linecap:round;stroke-linejoin:round;stroke-dasharray:none;stroke-opacity:1;paint-order:fill markers stroke"
       id="rect3-8"
       width="7.2090368"
       height="4.5777535"
       x="53.90659"
       y="24.797554"
       transform="matrix(0.95788414,-0.28715498,0.328266,0.94458532,0,0)"
       ry="1.4076915" />
    <rect
       style="fill:#2876a6;fill-opacity:1;stroke:#2876a6;stroke-width:0.779872;stroke-linecap:round;stroke-linejoin:round;stroke-dasharray:none;stroke-opacity:1;paint-order:fill markers stroke"
       id="rect3-8-1"
       width="7.2090368"
       height="4.5777535"
       x="35.809422"
       y="24.49218"
       transform="matrix(0.95788414,-0.28715498,0.328266,0.94458532,0,0)"
       ry="1.4076915" />
    <path
       style="fill:#2876a6;fill-opacity:1;stroke:#2876a6;stroke-width:0.779509;stroke-linecap:round;stroke-linejoin:round;stroke-dasharray:none;stroke-opacity:1;paint-order:fill markers stroke"
       d="m 47.004498,38.062566 c 1.534985,1.19498 3.330706,2.14554 5.219765,2.60988 3.577343,0.87933 7.4817,1.12017 11.049635,0.20337 2.965655,-0.76204 5.815348,-2.39545 7.965229,-4.57577 2.566039,-2.60239 4.693903,-5.98353 5.327262,-9.58294 0.16381,-0.93091 0.651307,-2.62812 -1.192128,-2.68691 -1.53869,-0.049 -1.807352,0.22665 -2.008002,1.70736 -0.277953,2.05113 -1.541681,4.57181 -3.042292,6.39345 -1.71548,2.08248 -3.972807,3.88913 -6.507758,4.81303 -3.073725,1.12026 -6.596785,1.29622 -9.795534,0.61011 -3.316395,-0.71135 -6.462007,-3.08294 -8.134699,-5.42313 -0.558786,-0.78178 -1.596014,-0.63739 -2.135361,-0.16948 -0.547255,0.47477 -0.526948,1.0059 -0.135577,2.16926 0.39137,1.16336 2.024073,2.86881 3.38946,3.93177 z"
       id="path3"
       sodipodi:nodetypes="aaaasssaassaza" />
    <path
       style="fill:#2876a6;fill-opacity:1;stroke:#2876a6;stroke-width:0.779509;stroke-linecap:round;stroke-linejoin:round;stroke-dasharray:none;stroke-opacity:1;paint-order:fill markers stroke"
       d="m 42.496515,14.166885 c -0.965873,0.264863 -2.094646,0.373962 -2.982728,0.915151 -0.593562,0.361711 -1.107262,0.890934 -1.457463,1.491363 -0.408932,0.70112 -0.617642,1.5293 -0.677889,2.33873 -0.05668,0.761668 0.131383,1.52716 0.305048,2.27093 0.233153,0.998547 0.601715,1.963037 0.982945,2.914937 0.486714,1.21529 1.065149,2.39318 1.660834,3.55893 0.464883,0.90977 0.979079,1.79372 1.491364,2.67767 0.515898,0.8902 1.005559,1.73508 1.593041,2.64378 0.270178,0.4179 1.49619,0.23191 1.728627,-0.30506 0.139427,-0.32208 -0.392879,-0.58196 -0.576212,-0.88125 -0.748099,-1.22129 -1.473171,-2.45848 -2.13536,-3.7284 -0.831879,-1.59536 -1.785387,-3.49412 -2.304831,-4.88082 -0.519435,-1.38672 -0.903504,-2.321124 -0.949044,-3.355573 -0.04557,-1.034447 0.08606,-2.010241 0.508418,-2.677668 0.422358,-0.667428 1.079679,-0.994984 1.626942,-1.186312 0.797312,-0.278747 2.360579,-0.476164 2.575986,-0.949043 0.224907,-0.493736 -0.497756,-1.09195 -1.389678,-0.847365 z"
       id="path4"
       sodipodi:nodetypes="saaaaaaasaaazzzsss" />
    <path
       style="fill:#2876a6;fill-opacity:1;stroke:#2876a6;stroke-width:0.779509;stroke-linecap:round;stroke-linejoin:round;stroke-dasharray:none;stroke-opacity:1;paint-order:fill markers stroke"
       d="m 67.170312,7.288367 c 0.963632,-0.272903 1.986112,-0.76337 3.026087,-0.759547 0.695087,0.0027 1.408477,0.189786 2.01875,0.522523 0.712632,0.388536 1.319619,0.989378 1.789842,1.650957 0.442479,0.622542 0.677459,1.374967 0.913535,2.101345 0.31694,0.975191 0.500375,1.99128 0.666459,3.003141 0.212038,1.291846 0.326239,2.599121 0.419393,3.90493 0.07269,1.01907 0.08983,2.041556 0.108617,3.063051 0.01895,1.028709 0.03681,2.005059 0.0042,3.086639 -0.01499,0.49741 -1.160551,0.97236 -1.637217,0.63303 -0.28592,-0.20355 0.03521,-0.70129 0.03731,-1.05226 0.0085,-1.43217 -0.01078,-2.866046 -0.100928,-4.295412 C 74.303145,17.351122 74.137102,15.232887 73.864397,13.777411 73.5917,12.321932 73.437096,11.323572 72.941025,10.414692 72.444945,9.505813 71.827598,8.738753 71.120912,8.385997 70.414218,8.03324 69.682231,8.092894 69.114905,8.21221 68.28835,8.386044 66.84833,9.025662 66.419378,8.732364 65.971517,8.426141 66.280591,7.540369 67.170442,7.288367 Z"
       id="path4-2"
       sodipodi:nodetypes="saaaaaaasaaazzzsss" />
    <path
       style="fill:#af6c3f;fill-opacity:1;stroke:#af6c3f;stroke-width:0.731739;stroke-linecap:round;stroke-linejoin:round;stroke-dasharray:none;stroke-opacity:1;paint-order:fill markers stroke"
       d="m 88.099376,37.661346 c 0,0 0.230862,-1.16954 -0.228225,-2.16612 -0.266768,-0.57907 -1.004415,-1.19216 -1.721224,-1.33918 -0.859209,-0.17623 -1.771742,0.0559 -2.545993,0.65988 -0.576128,0.44936 -1.105696,1.40174 -1.25699,2.07528 -0.253249,1.12749 -0.327123,2.10884 -0.283444,3.16805 0.06856,1.66283 0.85312,4.92193 0.85312,4.92193 0,0 3.912375,-0.6399 5.810118,-1.18819 0.651914,-0.18835 1.327394,-0.3635 1.902797,-0.71823 0.555114,-0.34221 1.106706,-0.76395 1.432634,-1.32197 0.372933,-0.63852 0.622156,-1.23516 0.501242,-2.1522 -0.137742,-1.04473 -0.7293,-1.68123 -1.503879,-2.03293 -0.849423,-0.38566 -1.217657,-0.082 -2.799875,0.20925 z"
       id="path6"
       sodipodi:nodetypes="csassacaaasacc" />
    <path
       style="fill:#2876a6;fill-opacity:1;stroke:#2876a6;stroke-width:0.779509;stroke-linecap:round;stroke-linejoin:round;stroke-dasharray:none;stroke-opacity:1;paint-order:fill markers stroke"
       d="m 62.324845,43.045066 c 0.728314,2.3838 1.512487,4.80936 2.84715,6.9145 0.978489,1.54337 2.165968,3.04888 3.694509,4.0504 1.0684,0.70002 2.349747,1.2079 3.626715,1.23715 1.335101,0.0306 2.663951,-0.49907 3.847041,-1.11852 1.231032,-0.64455 2.345486,-1.56091 3.236929,-2.62683 0.885648,-1.05898 2.169008,-2.25662 1.999783,-3.62672 -0.02746,-0.22215 -0.16248,-0.51495 -0.457572,-0.49147 -1.001197,0.0797 -2.172487,1.92795 -2.728519,2.55904 -0.703409,0.79836 -1.467991,1.55754 -2.389569,2.06757 -1.069891,0.59211 -2.286891,1.15563 -3.50709,1.0759 -0.929833,-0.0607 -1.787703,-0.61506 -2.543096,-1.16064 -1.124453,-0.81213 -2.064695,-1.8938 -2.830196,-3.05051 -0.724263,-1.0944 -1.165883,-2.3579 -1.609995,-3.59283 -0.402573,-1.11941 -0.692738,-2.27864 -0.949044,-3.4403 -0.2147,-0.9731 -0.380295,-2.22276 -0.491473,-2.94882 -0.14032,-0.91639 -2.542094,0.27115 -2.542094,0.27115 0.329137,1.3723 0.41065,2.61796 0.796521,3.88093 z"
       id="path7"
       sodipodi:nodetypes="aaaaaaassaaaaaasca" />
    <path
       style="fill:#2876a6;fill-opacity:1;stroke:#2876a6;stroke-width:0.779509;stroke-linecap:round;stroke-linejoin:round;stroke-dasharray:none;stroke-opacity:1;paint-order:fill markers stroke"
       d="m 80.390664,49.485036 c 0,0 -0.413842,-1.12058 -0.576212,-1.69473 -0.208096,-0.73583 -0.358514,-1.48718 -0.508418,-2.23704 -0.182062,-0.91071 -0.340069,-1.82652 -0.474527,-2.74546 -0.123559,-0.84445 -0.250908,-1.69037 -0.305048,-2.54209 -0.09532,-1.49968 -0.259077,-3.02226 -0.03386,-4.50798 0.239874,-1.58269 0.578149,-3.23815 1.457463,-4.57577 0.633468,-0.96363 1.54798,-1.82126 2.609878,-2.27094 1.346968,-0.57038 2.971921,-0.79511 4.372406,-0.37284 1.270415,0.38304 2.419183,1.34652 3.118305,2.4743 0.751654,1.21253 0.891384,4.18597 0.891384,4.18597 0,0 2.28257,-0.47588 3.433587,-0.41253 1.041852,0.0574 2.214623,0.33092 3.002072,1.03888 0.984234,0.88491 1.563607,2.27594 1.688917,3.59353 0.16448,1.72952 -0.39891,3.55773 -1.287995,5.05031 -0.519638,0.87235 -1.37963,1.52363 -2.237044,2.06756 -0.864549,0.54846 -1.876544,0.82653 -2.847142,1.15242 -1.564084,0.52515 -3.154404,1.00102 -4.779139,1.28799 -1.41829,0.25051 -2.779357,0.30505 -4.304613,0.37284 -1.363307,0.0606 -2.779357,-0.0339 -3.118297,0.0678 -0.338948,0.10168 0.237255,-1.01683 0.237255,-1.01683 l 0.982945,-1.18632 c 0,0 2.240667,0.09 3.355569,0 1.334864,-0.10767 2.667042,-0.31682 3.965664,-0.644 1.275031,-0.32122 2.756666,-0.74843 3.728401,-1.28799 1.327369,-0.73701 2.56,-1.61884 3.219989,-3.42335 0.276302,-0.75546 0.332396,-1.61904 0.16947,-2.40653 -0.208862,-1.00948 -0.671326,-2.0406 -1.423569,-2.74545 -0.513143,-0.48083 -1.237971,-0.73401 -1.931989,-0.84737 -0.873233,-0.14263 -2.643779,0.23726 -2.643779,0.23726 0,0 -0.198124,-1.79022 -0.643997,-2.54209 -0.440398,-0.74265 -1.081421,-1.48233 -1.898097,-1.76252 -1.469684,-0.50423 -3.276085,-0.33101 -4.643561,0.40673 -1.02649,0.55379 -1.732864,1.66384 -2.169253,2.74547 -0.603172,1.49503 -0.529332,3.20184 -0.474526,4.81303 0.05567,1.63729 0.417674,3.25722 0.813475,4.84692 0.207169,0.83208 0.813466,2.44041 0.813466,2.44041"
       id="path8"
       sodipodi:nodetypes="caaaaaaaaacsaaaaaassccaassaaacaaaaaac" />
    <text
       xml:space="preserve"
       transform="matrix(0.16619989,0,0,0.20438583,-26.122783,-2.5564666)"
       id="text2"
       style="font-style:normal;font-variant:normal;font-weight:500;font-stretch:normal;font-size:74.6667px;font-family:'Yu Gothic';-inkscape-font-specification:'Yu Gothic, Medium';font-variant-ligatures:normal;font-variant-caps:normal;font-variant-numeric:normal;font-variant-east-asian:normal;text-align:start;writing-mode:lr-tb;direction:ltr;white-space:pre;shape-inside:url(#rect2);opacity:1;fill:#2876a6;fill-opacity:1;stroke:#2876a6;stroke-width:2.321;stroke-linecap:round;stroke-linejoin:round;stroke-opacity:1;paint-order:fill markers stroke"><tspan
         x="454.52539"
         y="539.72269"
         id="tspan3">Economia y Salud</tspan></text>
    <text
       xml:space="preserve"
       transform="matrix(0.21126321,0,0,0.22210981,25.411302,-58.152645)"
       id="text2-6"
       style="font-style:normal;font-variant:normal;font-weight:500;font-stretch:normal;font-size:74.6667px;font-family:'Yu Gothic';-inkscape-font-specification:'Yu Gothic, Medium';font-variant-ligatures:normal;font-variant-caps:normal;font-variant-numeric:normal;font-variant-east-asian:normal;text-align:start;writing-mode:lr-tb;direction:ltr;white-space:pre;shape-inside:url(#rect2-0);fill:#2876a6;fill-opacity:1;stroke:#2876a6;stroke-width:2.321;stroke-linecap:round;stroke-linejoin:round;stroke-opacity:1;paint-order:fill markers stroke"><tspan
         x="454.52539"
         y="539.72269"
         id="tspan4">Farmacia</tspan></text>
  </g>
</svg>
