<svg width="539" height="395" viewBox="0 0 539 395" fill="none" xmlns="http://www.w3.org/2000/svg">
<g filter="url(#filter0_d_12_26)">
<path d="M-1.26897 66.216C-1.35563 79.8944 -0.79928 96.8284 -1.14162 110.361C-1.14643 110.551 -1.15123 110.741 -1.15604 110.931C-1.29597 116.461 -1.49802 122.097 -1.74231 128.916C-1.77342 129.784 -1.80596 130.674 -1.83842 131.583C-2.12692 139.666 -2.47275 149.595 -2.85718 163.125C-4.14801 208.557 -3.29016 244.378 -3.02297 255.52C-2.48708 277.866 -2.47575 301.705 -2.46073 334.232C-2.45936 337.206 -2.46017 340.255 -2.45832 343.38C-2.45683 345.912 -2.89074 348.009 -3.42903 348.067C-3.96755 348.123 -4.40545 346.118 -4.40694 343.585C-4.40875 340.525 -4.41038 337.542 -4.41175 334.636C-4.41175 334.622 -4.41175 334.609 -4.41175 334.596C-4.4272 301.864 -4.43873 278.544 -4.96198 256.724C-5.23499 245.339 -6.11167 208.639 -4.78898 162.086C-4.40047 148.412 -4.05327 138.371 -3.76301 130.24C-3.73124 129.349 -3.69951 128.482 -3.6693 127.638C-3.6685 127.618 -3.6677 127.598 -3.6669 127.579C-3.4211 120.715 -3.22657 115.317 -3.09265 110.024C-3.09024 109.911 -3.08784 109.799 -3.08544 109.686C-2.73921 96.0009 -3.30164 79.3899 -3.21759 66.1233C-3.20129 63.5908 -2.75137 61.5565 -2.21324 61.5824C-1.67545 61.6097 -1.2533 63.6848 -1.26897 66.216ZM526.87 270.149C526.157 256.942 526.235 239.373 526.553 223.859C526.873 208.238 527.449 194.1 527.803 187.445C528.148 180.941 528.26 173.714 528.329 165.091C528.345 163.114 528.358 161.063 528.372 158.942C528.419 151.935 528.47 144.139 528.624 135.582C529.19 104.147 529.214 83.6528 529.163 69.0165C529.152 66.0059 529.138 63.2047 529.124 60.5833C529.124 60.5788 529.124 60.5745 529.124 60.57C529.074 50.6748 529.037 43.2915 529.259 36.5016C529.487 29.5365 529.699 23.3076 529.97 17L530.137 8.20392L521 8.03024C516.363 7.83143 511.683 7.60148 506.636 7.31158C490.21 6.36808 466.814 6.48004 451.589 7.12897C450.753 7.16458 449.899 7.20241 449.034 7.23949C437.997 7.71281 424.406 8.2951 404.028 8.72919C387.097 9.08986 372.341 9.06147 359.28 8.95985C355.537 8.93073 351.966 8.89455 348.537 8.86134C339.882 8.77752 332.136 8.7021 324.839 8.74601C279.589 9.01842 253.493 8.666 237.091 8.13572C224.477 7.72785 217.431 7.20297 212.348 6.82382C210.812 6.70923 209.455 6.60643 208.178 6.52588C196.787 5.80754 186.33 5.48461 173.75 5.09625C170.958 5.01005 168.053 4.92003 165.019 4.82234C154.869 4.49562 147.305 4.55214 141.374 4.69019C138.78 4.75059 136.497 4.82502 134.344 4.89682C134.304 4.89842 134.265 4.90003 134.225 4.90163C133.925 4.91163 133.627 4.92069 133.331 4.93046C133.108 4.93783 132.886 4.94725 132.663 4.95449C132.575 4.96422 132.496 4.97053 132.438 4.97611C132.391 4.98052 132.355 4.98367 132.332 4.98572C132.327 4.98652 132.323 4.98733 132.318 4.98813C131.896 5.02553 131.533 5.04028 131.458 5.04339C131.328 5.04888 131.212 5.05129 131.153 5.053C130.842 5.062 130.441 5.06712 130.174 5.06982C129.488 5.07676 128.296 5.08496 126.454 5.09385C124.849 5.12195 123.31 5.16986 121.383 5.2308C121.262 5.23481 121.14 5.23881 121.019 5.24282C119.14 5.30234 116.941 5.37056 114.181 5.43744C111.67 5.49829 109.361 5.11454 109.025 4.57966C108.689 4.04472 110.453 3.56189 112.963 3.50083C115.563 3.43781 117.623 3.37297 119.503 3.31342C119.622 3.30941 119.741 3.30541 119.861 3.3014C121.821 3.2394 123.678 3.18137 125.679 3.14763C126.349 3.13634 127.04 3.12761 127.685 3.1212C128.846 3.0971 130.168 3.05572 131.749 3.00346C132.067 2.99297 132.394 2.9834 132.729 2.97223C134.878 2.90049 137.38 2.81686 140.202 2.75118C146.808 2.59743 155.177 2.53973 166.223 2.89534C169.12 2.98859 171.928 3.07515 174.67 3.15964C187.299 3.54881 198.536 3.89406 210.627 4.65655C212.286 4.76117 213.877 4.88071 215.578 5.00735C220.621 5.38269 226.641 5.83169 238.303 6.20872C253.927 6.7138 279.402 7.06823 324.396 6.79739C332.055 6.75128 340.317 6.83227 349.119 6.91753C352.479 6.95007 355.924 6.98148 359.439 7.00883C372.297 7.10886 386.588 7.13601 402.936 6.78778C422.859 6.36338 436.079 5.7981 447.068 5.32691C447.447 5.31009 447.827 5.29327 448.206 5.27646C448.678 5.25626 449.146 5.23616 449.61 5.21639C465.834 4.52476 490.728 4.38775 508.874 5.43023C513.107 5.6734 517.072 5.87273 521 6.04738L532.157 6.25947L531.953 17C531.657 23.6393 531.433 30.1749 531.186 37.7262C530.993 43.6371 531.024 49.953 531.073 59.6499C531.086 62.372 531.1 65.3647 531.111 68.6855C531.164 83.5841 531.14 104.391 530.568 136.178C530.419 144.465 530.369 151.922 530.323 158.889C530.309 161.053 530.294 163.177 530.278 165.257C530.208 173.921 530.096 181.986 529.696 189.504C529.368 195.684 528.806 209.367 528.495 224.561C528.181 239.864 528.134 256.11 528.761 267.72C528.827 268.927 528.891 270.144 528.956 271.361C529.515 281.834 530.086 292.511 531.034 301.108C533.999 320.266 534.928 347.15 535.069 375L534.797 389.331L521 389.069C492.832 389.212 463.676 388.548 440.526 388.367C439.921 388.362 439.316 388.357 438.712 388.353C385.571 387.938 346.951 387.991 333.787 388.009C333.173 388.01 332.614 388.011 332.112 388.011C331.663 388.012 331.258 388.013 330.9 388.014C325.538 388.019 320.793 388.088 315.821 388.16C315.55 388.164 315.278 388.168 315.007 388.172C309.754 388.249 304.24 388.323 297.724 388.317C273.491 388.292 253.738 388.381 236.646 388.475C233.481 388.493 230.405 388.508 227.405 388.526C227.396 388.526 227.387 388.526 227.379 388.526C214.215 388.601 202.537 388.669 191.455 388.67C171.246 388.671 157.596 388.794 146.978 388.927C143.649 388.969 140.58 389.011 137.685 389.052C131.424 389.14 125.955 389.217 120.315 389.244C109.708 389.295 99.9452 389.429 90.329 389.559C89.4719 389.57 88.6159 389.581 87.7606 389.592C77.3364 389.733 67.0133 389.863 56.0996 389.866C53.5665 389.867 51.4665 389.429 51.4131 388.891C51.3624 388.353 53.3761 387.916 55.9077 387.915C66.5085 387.912 76.578 387.786 86.9994 387.646C87.859 387.635 88.7226 387.622 89.5876 387.61C99.1798 387.48 109.121 387.347 119.925 387.295C125.362 387.269 130.528 387.197 136.665 387.11C139.594 387.069 142.748 387.025 146.257 386.981C157.036 386.846 170.866 386.72 191.269 386.719C202.218 386.718 213.746 386.653 226.902 386.577C229.92 386.56 233.026 386.542 236.229 386.524C253.364 386.43 273.219 386.341 297.585 386.366C303.742 386.372 308.969 386.302 314.2 386.226C314.493 386.222 314.786 386.218 315.08 386.214C320.008 386.142 325.017 386.068 330.682 386.063C331.439 386.062 332.405 386.062 333.568 386.06C346.752 386.042 385.529 385.988 438.864 386.404C439.03 386.406 439.195 386.407 439.36 386.409C475.098 386.687 495.26 386.845 510.44 386.363C514.251 386.242 517.756 386.15 521 386.079L531.864 386.285L532.079 375C531.926 368.045 531.871 362.286 531.839 357.275C531.83 355.873 531.822 354.547 531.815 353.283C531.786 347.821 531.763 343.504 531.628 339.19C531.219 326.14 530.549 316.781 529.3 305.457C528.24 295.858 527.614 284.098 527.065 273.796C527.064 273.781 527.063 273.766 527.063 273.75C526.998 272.528 526.934 271.324 526.87 270.149ZM77.827 6.73252C75.2955 6.71643 73.2631 6.26831 73.286 5.73057C73.3119 5.1924 75.3867 4.76802 77.9196 4.78389C83.9544 4.82234 89.9891 4.86078 96.0239 4.89922C98.5552 4.91543 100.588 5.36346 100.565 5.90117C100.539 6.43928 98.4637 6.86361 95.9312 6.84785C89.8964 6.8094 83.8617 6.77096 77.827 6.73252ZM517.171 280.714C517.062 278.243 517.403 275.782 517.93 275.22C518.457 274.662 518.972 276.213 519.081 278.682C519.138 279.987 519.243 282.135 519.384 285.023C520.102 299.773 521.767 333.927 522.976 375L522.938 377.013L521 376.976C504.142 377.473 486.118 377.892 467.791 378.139C462.487 378.21 457.736 378.28 453.208 378.348C433.844 378.636 418.299 380.021 381.261 379.965C257.763 379.777 134.342 378.182 11 378.376L7.56114 378.311L7.62407 375C7.57337 342.804 7.40073 310.614 7.04932 278.43C6.55898 233.523 6.48562 188.757 6.51831 143.816C6.54558 106.358 7.54524 37.6968 7.6476 21.5412C7.66365 19.0076 8.11366 16.9744 8.65195 17.0002C9.18994 17.0273 9.61216 19.1014 9.59622 21.6339C9.49459 37.6753 8.49645 106.108 8.46934 143.426C8.43676 188.28 8.50858 232.954 8.99794 277.774C9.35162 310.165 9.62684 342.576 9.8388 375L9.81716 376.139L11 376.161C134.399 375.355 257.995 375.464 381.467 375.652C418.144 375.707 433.073 376.691 452.368 376.404C456.906 376.336 461.684 376.264 467.037 376.192C485.651 375.942 503.943 375.511 521 375.003C519.815 335.159 518.203 302.056 517.485 287.313C517.34 284.333 517.232 282.095 517.171 280.714ZM517.985 162.907C517.838 134.627 518.1 94.4245 518.331 59.2924C518.434 43.7019 518.531 29.1096 518.582 17L521 19.4182C519.802 19.4132 518.627 19.4086 517.479 19.4046C497.722 19.3346 485.284 18.8682 472.95 18.405C472.818 18.4002 472.685 18.3954 472.553 18.3906C460.227 17.9278 447.891 17.4724 427.825 17.4007C407.594 17.3284 379.6 17.6455 351.363 17.9653C351.341 17.9653 351.319 17.9653 351.297 17.9653C323.211 18.2835 294.722 19.5927 274.134 19.5175C202.391 19.2555 158.155 17.9162 135.787 16.8649C96.6613 15.0258 52.285 17.0885 12.3141 14.7625C7.90563 14.2473 15.3412 12.7643 23.4679 13.1911C23.7613 13.2031 24.0548 13.2151 24.3482 13.2271C27.1432 13.3389 29.5889 13.4298 33.033 13.5034C38.0235 13.5637 41.7375 13.5677 45.1268 13.5707C54.0198 13.5785 115.757 13.9327 137.601 14.9595C158.829 15.9571 202.137 14.941 274.339 15.2046C294.546 15.2784 322.464 16.3365 350.701 16.0167C350.779 16.0159 350.856 16.0151 350.933 16.0143C378.963 15.6968 407.23 15.3762 427.798 15.4497C448.589 15.5239 461.488 16.002 473.976 16.4708C474.097 16.4756 474.219 16.4804 474.34 16.4852C486.56 16.9441 498.425 17.3886 517.453 17.4559C518.611 17.46 519.794 17.4646 521 17.4696L520.53 17C520.479 29.3591 520.383 44.1317 520.28 59.8419C520.05 94.8234 519.788 134.465 519.934 162.503C519.947 165.034 519.52 167.178 518.982 167.289C518.444 167.399 517.998 165.436 517.985 162.907ZM505.839 162.325C504.522 113.897 504.233 65.3054 504.725 17L521 33.275C490.04 32.9599 459.198 32.3241 428.593 31.4327C408.141 31.3596 379.6 31.2082 351.099 31.0554C350.777 31.053 350.454 31.0506 350.132 31.0482C321.939 30.8971 293.87 30.747 273.717 30.6734C201.975 30.4115 157.572 30.0596 135.205 29.0083C114.349 28.028 108.559 28.0251 99.9757 28.0184C99.7418 28.0176 99.508 28.0168 99.274 28.016C99.2587 28.0176 99.2431 28.0192 99.2277 28.0208C98.9334 28.0459 98.6864 28.0602 98.5592 28.0664C98.2999 28.0791 98.0888 28.0839 98.0097 28.0857C97.827 28.0898 97.6737 28.0901 97.6192 28.0905C97.3964 28.0919 97.1413 28.0915 96.9771 28.0905C95.4488 28.0808 90.6619 28.0218 86.8692 27.9415C82.9825 27.8592 80.212 27.7532 77.2908 27.6364C76.9952 27.6243 76.6994 27.6123 76.4038 27.6003C73.7706 27.4944 70.9056 27.3793 66.7791 27.2543C64.265 27.178 62.4785 26.6845 62.7875 26.1515C63.0983 25.6188 65.3849 25.249 67.8978 25.3249C72.2391 25.4564 75.2877 25.5789 77.9329 25.6853C78.2264 25.6973 78.5198 25.7094 78.8133 25.7214C81.6091 25.8332 84.0589 25.924 87.5046 25.9977C92.494 26.0579 96.2029 26.062 99.5918 26.065C108.478 26.0727 115.169 26.0787 137.012 27.1053C158.239 28.1031 201.485 28.4612 273.691 28.7248C293.881 28.7985 321.983 28.9486 350.152 29.0996C350.483 29.1012 350.814 29.1028 351.145 29.1044C379.662 29.2573 408.161 29.4111 428.566 29.4841C459.555 29.5948 490.293 29.5142 521 29.4585L508.541 17C508.629 65.1044 508.655 113.13 507.788 161.914C507.865 176.621 507.895 190.063 507.922 202.518C508.004 239.17 508.067 267.298 509.251 294.112C509.511 299.99 509.731 315.4 510.006 337.668C510.086 344.193 510.17 351.352 510.263 359.088C510.323 364.147 510.386 369.455 510.453 375L521 364.453C505.757 364.637 488.724 364.847 470.161 365.096C464.857 365.168 460.105 365.238 455.578 365.306C436.213 365.594 420.928 365.823 383.889 365.767C338.317 365.698 261.96 365.214 221.123 364.842C200.67 364.656 189.124 364.483 180.956 364.34C178.682 364.3 176.682 364.261 174.846 364.227C170.052 364.137 166.329 364.069 161.449 364.022C126.309 363.691 101.707 363.919 61.4018 364.395C58.8763 364.425 56.6741 364.012 56.4836 363.475C56.2938 362.937 58.1879 362.476 60.7134 362.446C101.078 361.97 126.055 361.738 161.674 362.074C166.768 362.122 170.755 362.197 175.634 362.288C177.443 362.321 179.375 362.358 181.532 362.396C189.565 362.537 200.99 362.708 221.335 362.893C262.098 363.264 338.344 363.747 383.777 363.816C420.454 363.872 435.443 363.649 454.738 363.362C459.274 363.294 464.049 363.222 469.4 363.15C488.262 362.897 505.563 362.683 521 362.497L508.497 375C508.433 369.69 508.372 364.6 508.314 359.744C508.222 352.017 508.137 344.876 508.057 338.376C507.777 315.659 507.563 301.18 507.341 296.144C506.116 268.39 506.05 239.04 505.969 202.048C505.942 189.73 505.914 176.561 505.839 162.325ZM22.04 280.144C22.0675 282.671 21.6527 284.863 21.115 285.043C20.5773 285.221 20.119 283.32 20.0914 280.793C19.9457 267.446 19.8254 257.851 19.731 250.35C19.5562 236.467 19.4709 229.757 19.4859 219.708C19.5245 193.768 19.544 168.72 19.5604 146.186C19.5876 108.729 19.6094 78.2008 19.7118 62.0458C19.7279 59.5126 20.1779 57.4789 20.7161 57.5048C21.2538 57.533 21.6762 59.6072 21.6604 62.1384C21.5587 78.1799 21.5361 108.478 21.509 145.795C21.4926 168.356 21.4758 193.486 21.4369 219.589C21.4224 229.335 21.5013 235.67 21.6724 249.244C21.7669 256.738 21.8904 266.441 22.04 280.144Z" fill="#8EF4F9"/>
</g>
<defs>
<filter id="filter0_d_12_26" x="0.103516" y="0.5" width="538.844" height="393.841" filterUnits="userSpaceOnUse" color-interpolation-filters="sRGB">
<feFlood flood-opacity="0" result="BackgroundImageFix"/>
<feColorMatrix in="SourceAlpha" type="matrix" values="0 0 0 0 0 0 0 0 0 0 0 0 0 0 0 0 0 0 127 0" result="hardAlpha"/>
<feOffset dy="4"/>
<feGaussianBlur stdDeviation="2"/>
<feComposite in2="hardAlpha" operator="out"/>
<feColorMatrix type="matrix" values="0 0 0 0 0 0 0 0 0 0 0 0 0 0 0 0 0 0 0.25 0"/>
<feBlend mode="normal" in2="BackgroundImageFix" result="effect1_dropShadow_12_26"/>
<feBlend mode="normal" in="SourceGraphic" in2="effect1_dropShadow_12_26" result="shape"/>
</filter>
</defs>
</svg>
